<svg width="523" height="361" viewBox="0 0 523 361" fill="none" xmlns="http://www.w3.org/2000/svg">
<g clip-path="url(#clip0_33_61)">
<path d="M39.3487 360.819L38.7983 359.572C46.1782 354.682 55.3629 348.596 60.1602 338.608C64.8892 328.762 64.9953 315.393 60.4371 303.716C56.558 293.779 49.4322 284.876 39.8303 277.969C37.9363 276.607 35.9482 275.316 34.0254 274.067C29.3779 271.049 24.5721 267.928 20.6095 263.5C15.1517 257.402 11.0223 247.168 14.1001 238.052C15.1123 235.143 16.7701 232.639 18.8851 230.826C21.0002 229.013 23.4877 227.963 26.0654 227.795L26.1307 229.211C23.7692 229.364 21.4902 230.326 19.5521 231.986C17.6141 233.646 16.0947 235.939 15.1663 238.604C12.3062 247.075 16.2303 256.688 21.3893 262.453C25.2436 266.759 29.9835 269.837 34.5674 272.814C36.501 274.07 38.5006 275.368 40.4163 276.746C50.218 283.796 57.5021 292.911 61.4811 303.104C66.2033 315.2 66.0794 329.081 61.1576 339.328C56.1969 349.655 46.855 355.846 39.3487 360.819Z" fill="#F1F1F1"/>
<path d="M33.4004 235.269C38.9932 235.269 43.527 232.57 43.527 229.242C43.527 225.913 38.9932 223.215 33.4004 223.215C27.8076 223.215 23.2738 225.913 23.2738 229.242C23.2738 232.57 27.8076 235.269 33.4004 235.269Z" fill="#F1F1F1"/>
<path d="M41.5017 274.974C47.0944 274.974 51.6283 272.276 51.6283 268.948C51.6283 265.619 47.0944 262.921 41.5017 262.921C35.9089 262.921 31.3751 265.619 31.3751 268.948C31.3751 272.276 35.9089 274.974 41.5017 274.974Z" fill="#F1F1F1"/>
<path d="M22.9845 281.356C28.5772 281.356 33.1111 278.658 33.1111 275.329C33.1111 272.001 28.5772 269.302 22.9845 269.302C17.3917 269.302 12.8578 272.001 12.8578 275.329C12.8578 278.658 17.3917 281.356 22.9845 281.356Z" fill="#F1F1F1"/>
<path d="M51.9176 314.68C57.5104 314.68 62.0442 311.982 62.0442 308.653C62.0442 305.325 57.5104 302.627 51.9176 302.627C46.3249 302.627 41.791 305.325 41.791 308.653C41.791 311.982 46.3249 314.68 51.9176 314.68Z" fill="#F1F1F1"/>
<path d="M72.1709 314.68C77.7636 314.68 82.2975 311.982 82.2975 308.653C82.2975 305.325 77.7636 302.627 72.1709 302.627C66.5781 302.627 62.0443 305.325 62.0443 308.653C62.0443 311.982 66.5781 314.68 72.1709 314.68Z" fill="#F1F1F1"/>
<path d="M523 10.9399H197.331V200.291H523V10.9399Z" fill="#E6E6E6"/>
<path d="M513.688 27.1771H206.643V185.159H513.688V27.1771Z" fill="white"/>
<path d="M522.861 0H197.192V16.9524H522.861V0Z" fill="#4328E9"/>
<path d="M207.473 10.9834C208.889 10.9834 210.038 9.5766 210.038 7.84128C210.038 6.10597 208.889 4.69922 207.473 4.69922C206.057 4.69922 204.909 6.10597 204.909 7.84128C204.909 9.5766 206.057 10.9834 207.473 10.9834Z" fill="white"/>
<path d="M217.207 10.9834C218.623 10.9834 219.771 9.5766 219.771 7.84128C219.771 6.10597 218.623 4.69922 217.207 4.69922C215.79 4.69922 214.642 6.10597 214.642 7.84128C214.642 9.5766 215.79 10.9834 217.207 10.9834Z" fill="white"/>
<path d="M226.94 10.9834C228.357 10.9834 229.505 9.5766 229.505 7.84128C229.505 6.10597 228.357 4.69922 226.94 4.69922C225.524 4.69922 224.376 6.10597 224.376 7.84128C224.376 9.5766 225.524 10.9834 226.94 10.9834Z" fill="white"/>
<path d="M343.976 64.6692C343.647 64.6692 343.331 64.8296 343.098 65.115C342.865 65.4005 342.734 65.7877 342.734 66.1914C342.734 66.5951 342.865 66.9823 343.098 67.2678C343.331 67.5532 343.647 67.7136 343.976 67.7136H412.145C412.474 67.7136 412.791 67.5532 413.023 67.2678C413.256 66.9823 413.387 66.5951 413.387 66.1914C413.387 65.7877 413.256 65.4005 413.023 65.115C412.791 64.8296 412.474 64.6692 412.145 64.6692H343.976Z" fill="#E6E6E6"/>
<path d="M343.976 73.8033C343.647 73.8042 343.332 73.965 343.099 74.2503C342.867 74.5357 342.737 74.9224 342.737 75.3256C342.737 75.7287 342.867 76.1154 343.099 76.4008C343.332 76.6861 343.647 76.8469 343.976 76.8478H378.778C379.107 76.8469 379.422 76.6861 379.654 76.4008C379.887 76.1154 380.017 75.7287 380.017 75.3256C380.017 74.9224 379.887 74.5357 379.654 74.2503C379.422 73.965 379.107 73.8042 378.778 73.8033H343.976Z" fill="#E6E6E6"/>
<path d="M342.261 118.014C341.931 118.014 341.615 118.174 341.382 118.46C341.149 118.745 341.019 119.132 341.019 119.536C341.019 119.94 341.149 120.327 341.382 120.612C341.615 120.898 341.931 121.058 342.261 121.058H470.078C470.407 121.058 470.723 120.898 470.956 120.612C471.189 120.327 471.32 119.94 471.32 119.536C471.32 119.132 471.189 118.745 470.956 118.46C470.723 118.174 470.407 118.014 470.078 118.014H342.261Z" fill="#E6E6E6"/>
<path d="M342.261 127.148C341.932 127.149 341.617 127.31 341.384 127.595C341.152 127.88 341.021 128.267 341.021 128.67C341.021 129.073 341.152 129.46 341.384 129.745C341.617 130.031 341.932 130.191 342.261 130.192H436.71C437.039 130.191 437.355 130.031 437.587 129.745C437.82 129.46 437.95 129.073 437.95 128.67C437.95 128.267 437.82 127.88 437.587 127.595C437.355 127.31 437.039 127.149 436.71 127.148H342.261Z" fill="#E6E6E6"/>
<path d="M342.261 136.075C341.932 136.076 341.617 136.237 341.384 136.522C341.152 136.808 341.021 137.194 341.021 137.598C341.021 138.001 341.152 138.387 341.384 138.673C341.617 138.958 341.932 139.119 342.261 139.12H470.078C470.407 139.119 470.722 138.958 470.954 138.673C471.187 138.387 471.317 138.001 471.317 137.598C471.317 137.194 471.187 136.808 470.954 136.522C470.722 136.237 470.407 136.076 470.078 136.075H342.261Z" fill="#E6E6E6"/>
<path d="M342.261 145.209C341.932 145.21 341.617 145.371 341.384 145.656C341.152 145.942 341.021 146.329 341.021 146.732C341.021 147.135 341.152 147.522 341.384 147.807C341.617 148.092 341.932 148.253 342.261 148.254H436.71C437.039 148.253 437.355 148.092 437.587 147.807C437.82 147.522 437.95 147.135 437.95 146.732C437.95 146.329 437.82 145.942 437.587 145.656C437.355 145.371 437.039 145.21 436.71 145.209H342.261Z" fill="#E6E6E6"/>
<path d="M275.437 124.192C281.412 124.192 286.255 118.257 286.255 110.937C286.255 103.616 281.412 97.6819 275.437 97.6819C269.463 97.6819 264.62 103.616 264.62 110.937C264.62 118.257 269.463 124.192 275.437 124.192Z" fill="#A0616A"/>
<path d="M272.012 100.333C272.012 100.333 277.06 101.99 279.674 102.652C282.289 103.315 282.018 101.437 282.018 101.437C282.018 101.437 285.444 101.99 285.263 101.548C285.083 101.106 286.706 98.7864 284.813 96.1354C282.92 93.4844 283.46 91.4962 283.46 91.4962H281.838L281.387 90.723H278.863C278.863 90.723 276.072 87.7246 271.114 88.6083C266.156 89.4919 260.293 91.8276 259.752 95.4727C259.678 95.9671 259.582 96.5164 259.47 97.0965C258.114 104.11 260.994 110.672 263.982 116.88C264.717 118.406 268.268 121.733 268.177 119.451C268.087 117.168 264.98 112.041 267.144 111.71C269.307 111.378 273.003 104.641 272.012 100.333Z" fill="#2F2E41"/>
<path d="M269.301 153.787C267.212 153.582 265.141 153.166 263.109 152.541L263.223 149.898L264.171 128.88L264.179 128.719H283.235L286.225 148.071L286.629 150.682C285.839 151.058 285.041 151.413 284.226 151.724C284.217 151.724 284.217 151.735 284.208 151.735C283.077 152.165 281.928 152.541 280.771 152.852C279.231 153.259 277.673 153.553 276.105 153.733C274.893 153.881 273.676 153.953 272.458 153.948C271.405 153.948 270.344 153.895 269.301 153.787Z" fill="#4328E9"/>
<path d="M257.05 150.048C256.261 149.629 255.498 149.178 254.743 148.705L254.419 148.501C254.2 148.361 253.972 148.211 253.753 148.06C253.454 147.856 253.165 147.652 252.884 147.448C252.612 147.254 252.332 147.05 252.06 146.846C252.042 146.835 252.034 146.825 252.016 146.825C251.069 146.083 250.14 145.32 249.245 144.493C249.096 144.353 248.947 144.214 248.798 144.074L248.64 140.979L248.868 140.807L264.171 128.88L264.381 128.719L264.398 128.708L266.556 128.719V138.562C267.775 140.721 268.599 145.245 269.108 151.165C269.178 152.014 269.239 152.885 269.301 153.787C267.212 153.583 265.141 153.166 263.109 152.541C262.89 152.487 262.68 152.423 262.46 152.347C261.182 151.938 259.924 151.443 258.69 150.865C258.312 150.693 257.944 150.51 257.576 150.327L257.541 150.306C257.383 150.22 257.208 150.134 257.05 150.048Z" fill="#2F2E41"/>
<path d="M253.753 148.06C253.454 147.856 253.165 147.652 252.884 147.448C252.612 147.254 252.332 147.05 252.06 146.846C252.042 146.835 252.034 146.824 252.016 146.824C251.069 146.083 250.14 145.32 249.245 144.493C249.096 144.353 248.947 144.213 248.798 144.074C248.728 143.999 248.658 143.934 248.578 143.859C248.017 143.332 247.474 142.784 246.947 142.204C246.921 142.183 246.904 142.15 246.877 142.129C247.409 141.628 248.004 141.24 248.64 140.979L249.263 141.205L253.7 142.838L253.726 145.041L253.753 148.06Z" fill="#2F2E41"/>
<path d="M291.119 148.092C290.855 148.264 290.592 148.436 290.329 148.597C290.268 148.64 290.216 148.673 290.163 148.705C289.812 148.92 289.47 149.135 289.119 149.339C289.11 149.35 289.093 149.35 289.093 149.36C289.075 149.371 289.049 149.382 289.032 149.393C288.242 149.855 287.444 150.284 286.629 150.682C285.839 151.058 285.041 151.413 284.226 151.724C284.217 151.724 284.217 151.735 284.208 151.735C283.077 152.165 281.928 152.541 280.771 152.852C280.758 151.97 280.852 151.09 281.051 150.241L281.06 150.091L281.814 135.134L280.806 128.719L283.7 128.193L299.616 138.691C299.616 138.691 297.862 140.84 290.663 145.417C290.026 145.822 290.961 147.168 291.119 148.092Z" fill="#2F2E41"/>
<path d="M275.913 151.155C274.772 151.284 273.615 151.348 272.458 151.348C271.335 151.348 270.221 151.294 269.108 151.165C269.178 152.014 269.239 152.885 269.301 153.787C270.344 153.895 271.405 153.948 272.458 153.948C273.676 153.953 274.893 153.881 276.105 153.734C277.673 153.554 279.231 153.259 280.771 152.852C280.758 151.97 280.852 151.09 281.051 150.241L281.06 150.091C279.367 150.596 277.647 150.951 275.913 151.155ZM309.052 90.8539C307.199 84.3316 304.207 78.3831 300.285 73.4231C296.362 68.4631 291.605 64.6111 286.343 62.1357C281.081 59.6602 275.442 58.6209 269.818 59.0902C264.195 59.5596 258.723 61.5262 253.783 64.853C248.844 68.1799 244.556 72.7868 241.219 78.3526C237.882 83.9184 235.576 90.3091 234.462 97.079C233.348 103.849 233.453 110.835 234.768 117.551C236.084 124.266 238.58 130.549 242.081 135.961C242.431 136.499 242.791 137.036 243.159 137.552C243.194 137.595 243.212 137.627 243.238 137.659C244.143 138.938 245.107 140.154 246.123 141.302C246.369 141.581 246.623 141.86 246.877 142.129C246.904 142.15 246.921 142.183 246.947 142.204C247.474 142.784 248.017 143.332 248.578 143.859C248.658 143.934 248.728 143.999 248.798 144.074C248.947 144.214 249.096 144.353 249.245 144.493C250.14 145.32 251.069 146.083 252.016 146.824C252.034 146.824 252.042 146.835 252.06 146.846C252.332 147.05 252.612 147.254 252.884 147.448C253.165 147.652 253.455 147.856 253.753 148.06C253.972 148.211 254.2 148.361 254.419 148.501L254.743 148.705C255.498 149.178 256.261 149.629 257.05 150.048C257.208 150.134 257.383 150.22 257.541 150.306L257.576 150.327C257.944 150.51 258.312 150.693 258.69 150.865C259.924 151.443 261.182 151.938 262.46 152.347C262.68 152.423 262.89 152.487 263.109 152.541C265.141 153.166 267.212 153.583 269.301 153.787C270.344 153.895 271.405 153.948 272.458 153.948C273.676 153.953 274.893 153.881 276.105 153.734C277.673 153.554 279.231 153.259 280.771 152.852C281.928 152.541 283.077 152.165 284.208 151.735C284.217 151.735 284.217 151.724 284.226 151.724C285.041 151.413 285.839 151.058 286.629 150.682C287.444 150.284 288.242 149.855 289.032 149.393C289.049 149.382 289.075 149.371 289.093 149.36C289.093 149.35 289.11 149.35 289.119 149.339C289.47 149.135 289.812 148.92 290.163 148.705C290.216 148.673 290.268 148.64 290.329 148.597C290.592 148.436 290.855 148.264 291.119 148.092C291.136 148.082 291.145 148.071 291.162 148.06C291.855 147.587 292.539 147.093 293.215 146.567C293.399 146.427 293.583 146.287 293.767 146.126C294.039 145.922 294.302 145.696 294.556 145.471C294.898 145.181 295.24 144.88 295.573 144.568C295.684 144.481 295.79 144.384 295.889 144.278C296.705 143.526 297.494 142.731 298.248 141.893C303.967 135.649 308.046 127.467 309.969 118.382C311.892 109.296 311.573 99.7166 309.052 90.8539ZM297.59 139.12C296.641 140.215 295.646 141.248 294.609 142.215C294.381 142.43 294.144 142.645 293.907 142.838C293.679 143.053 293.451 143.257 293.215 143.451C293.013 143.623 292.811 143.794 292.601 143.956C292.583 143.977 292.557 143.988 292.539 144.009C292.39 144.138 292.232 144.256 292.083 144.375C291.618 144.729 291.136 145.084 290.663 145.417C290.549 145.492 290.443 145.578 290.329 145.653C290.268 145.696 290.207 145.739 290.136 145.782C289.873 145.965 289.61 146.126 289.347 146.298C289.312 146.33 289.268 146.341 289.233 146.373C289.22 146.376 289.208 146.383 289.198 146.395C289.014 146.513 288.83 146.62 288.646 146.728C288.488 146.824 288.339 146.921 288.181 147.007C287.541 147.383 286.883 147.738 286.225 148.071C285.532 148.415 284.831 148.726 284.121 149.016C283.945 149.092 283.761 149.178 283.577 149.242C282.744 149.564 281.911 149.855 281.06 150.091C279.367 150.596 277.647 150.951 275.913 151.155C274.772 151.284 273.615 151.348 272.458 151.348C271.335 151.348 270.221 151.294 269.108 151.165C267.121 150.943 265.153 150.519 263.223 149.898C263.153 149.876 263.074 149.855 263.004 149.833C261.422 149.327 259.871 148.681 258.365 147.899C258.286 147.856 258.199 147.824 258.128 147.781C258.041 147.738 257.962 147.706 257.892 147.663C257.804 147.62 257.725 147.577 257.646 147.534C256.989 147.179 256.348 146.792 255.708 146.395L255.41 146.201C254.84 145.836 254.279 145.46 253.726 145.041C253.533 144.912 253.332 144.761 253.139 144.611C252.919 144.45 252.7 144.278 252.49 144.106C252.437 144.063 252.385 144.02 252.332 143.977C251.841 143.569 251.341 143.16 250.868 142.72C250.534 142.419 250.21 142.129 249.885 141.817C249.675 141.624 249.464 141.42 249.263 141.205C249.131 141.087 249 140.947 248.868 140.807C248.693 140.625 248.517 140.442 248.342 140.249C248.07 139.98 247.816 139.679 247.57 139.4C246.583 138.285 245.649 137.101 244.773 135.854C244.475 135.446 244.194 135.037 243.922 134.607C243.859 134.523 243.8 134.433 243.747 134.339C239.332 127.51 236.635 119.254 235.984 110.579C235.333 101.904 236.757 93.1841 240.082 85.4836C243.406 77.783 248.488 71.4345 254.708 67.2126C260.927 62.9908 268.015 61.078 275.106 61.7078C282.197 62.3375 288.986 65.4825 294.643 70.7591C300.301 76.0357 304.583 83.2157 306.967 91.4232C309.35 99.6308 309.733 108.511 308.068 116.981C306.403 125.45 302.763 133.143 297.59 139.12Z" fill="#3F3D56"/>
<path d="M94.5744 352.175L101.669 352.174L105.044 318.645L94.5732 318.646L94.5744 352.175Z" fill="#A0616A"/>
<path d="M92.765 349.336L106.736 349.336H106.737C109.098 349.336 111.363 350.485 113.032 352.531C114.702 354.577 115.64 357.352 115.64 360.245V360.6L92.7654 360.601L92.765 349.336Z" fill="#2F2E41"/>
<path d="M121.193 352.175L128.287 352.174L131.662 318.645L121.192 318.646L121.193 352.175Z" fill="#A0616A"/>
<path d="M119.383 349.336L133.355 349.336H133.355C135.717 349.336 137.981 350.485 139.651 352.531C141.321 354.577 142.259 357.352 142.259 360.245V360.6L119.384 360.601L119.383 349.336Z" fill="#2F2E41"/>
<path d="M73.0484 219.686C73.6291 218.925 74.0663 218.016 74.3294 217.025C74.5924 216.034 74.6749 214.984 74.571 213.949C74.4671 212.915 74.1793 211.921 73.728 211.037C73.2766 210.154 72.6727 209.402 71.9586 208.835L76.8878 184.229L66.7656 188.648L63.6366 211.337C62.9393 212.87 62.7252 214.663 63.0347 216.377C63.3442 218.09 64.156 219.605 65.3161 220.634C66.4762 221.663 67.9041 222.135 69.3293 221.96C70.7544 221.786 72.0777 220.977 73.0484 219.686Z" fill="#9E616A"/>
<path d="M148.356 217.559C147.776 216.797 147.338 215.889 147.075 214.898C146.812 213.906 146.73 212.857 146.834 211.822C146.938 210.788 147.225 209.793 147.677 208.91C148.128 208.026 148.732 207.275 149.446 206.708L144.517 182.102L154.639 186.521L157.768 209.21C158.465 210.743 158.68 212.536 158.37 214.25C158.061 215.963 157.249 217.478 156.089 218.507C154.929 219.536 153.501 220.008 152.076 219.833C150.65 219.659 149.327 218.85 148.356 217.559Z" fill="#9E616A"/>
<path d="M82.3826 202.438L92.2158 343.581L106.604 341.974L112.362 232.889L117.488 276.082L118.514 344.692L131.534 343.629L138.764 269.818L136.99 198.336L87.5628 192.203L82.3826 202.438Z" fill="#2F2E41"/>
<path d="M109.432 74.0004C117.673 74.0004 124.354 65.8148 124.354 55.7175C124.354 45.6201 117.673 37.4346 109.432 37.4346C101.191 37.4346 94.511 45.6201 94.511 55.7175C94.511 65.8148 101.191 74.0004 109.432 74.0004Z" fill="#A0616A"/>
<path d="M104.707 41.0911C104.707 41.0911 111.67 43.3765 115.276 44.2907C118.882 45.2048 118.509 42.6147 118.509 42.6147C118.509 42.6147 123.234 43.3765 122.986 42.7671C122.737 42.1576 124.975 38.9581 122.364 35.3016C119.753 31.645 120.499 28.9025 120.499 28.9025H118.261L117.639 27.836H114.157C114.157 27.836 110.308 23.7003 103.469 24.9191C96.6302 26.1379 88.5424 29.3596 87.7964 34.3874C87.6952 35.0694 87.562 35.827 87.4073 36.6272C85.5372 46.301 89.5106 55.3523 93.6318 63.9158C94.6446 66.0204 99.5438 70.6096 99.4184 67.4609C99.2931 64.3123 95.0083 57.241 97.9926 56.784C100.977 56.3269 106.075 47.0331 104.707 41.0911Z" fill="#2F2E41"/>
<path d="M93.9052 80.2457H120.183L138.764 200.48C138.764 200.48 122.565 202.177 113.306 206.431C104.048 210.685 88.6562 196.713 88.6562 196.713L93.9052 80.2457Z" fill="#4328E9"/>
<path d="M97.1858 93.8235V80.2457L94.2105 80.2235L72.4719 97.1587L77.1889 189.945C77.1889 189.945 82.7718 220.899 91.2398 220.578C99.7078 220.257 106.237 109.905 97.1858 93.8235Z" fill="#2F2E41"/>
<path d="M79.4546 99.7218L72.4719 97.1587C72.4719 97.1587 67.3026 99.0128 67.3026 105.394C67.3026 111.775 62.8488 202.438 62.8488 202.438L76.9975 203.97L80.0332 157.862L79.4546 99.7218Z" fill="#2F2E41"/>
<path d="M118.225 89.0863L116.833 80.2457L120.829 79.5144L135.296 86.6047C135.296 86.6047 148.316 203.24 142.529 206.786C136.742 210.331 132.835 207.584 132.835 207.584C132.835 207.584 113.802 121.56 117.171 109.932L118.225 89.0863Z" fill="#2F2E41"/>
<path d="M125.169 88.3774L127.638 87.0606C127.638 87.0606 134.885 82.6606 138.996 91.5458C143.108 100.431 157.574 199.695 157.574 199.695L145.671 202.438L136.772 166.714L125.169 88.3774Z" fill="#2F2E41"/>
<path d="M221.049 361H0.578663C0.425192 361 0.278007 360.925 0.169486 360.792C0.0609657 360.659 0 360.479 0 360.291C0 360.103 0.0609657 359.923 0.169486 359.79C0.278007 359.657 0.425192 359.582 0.578663 359.582H221.049C221.203 359.582 221.35 359.657 221.459 359.79C221.567 359.923 221.628 360.103 221.628 360.291C221.628 360.479 221.567 360.659 221.459 360.792C221.35 360.925 221.203 361 221.049 361Z" fill="#CACACA"/>
</g>
<defs>
<clipPath id="clip0_33_61">
<rect width="523" height="361" fill="white"/>
</clipPath>
</defs>
</svg>
