<svg width="1297" height="750" viewBox="0 0 1297 750" fill="none" xmlns="http://www.w3.org/2000/svg">
<path d="M79.608 557.768C131.111 557.768 156.862 582.307 156.862 631.384C156.862 680.461 131.111 705 79.608 705H15.836V557.768H79.608ZM63.13 669.69H78.752C98.5827 669.69 108.498 659.061 108.498 637.804V624.964C108.498 603.707 98.5827 593.078 78.752 593.078H63.13V669.69ZM182.397 557.768H309.727V593.078H229.691V613.408H298.171V647.22H229.691V669.69H311.225V705H182.397V557.768ZM376.854 705L324.638 557.768H375.142L404.674 656.208H405.53L435.276 557.768H483.64L431.638 705H376.854ZM503.397 557.768H550.691V667.336H626.233V705H503.397V557.768ZM715.768 555.2C741.163 555.2 760.779 561.691 774.618 574.674C788.457 587.657 795.376 606.56 795.376 631.384C795.376 656.208 788.457 675.111 774.618 688.094C760.779 701.077 741.163 707.568 715.768 707.568C690.373 707.568 670.757 701.148 656.918 688.308C643.222 675.325 636.374 656.351 636.374 631.384C636.374 606.417 643.222 587.514 656.918 574.674C670.757 561.691 690.373 555.2 715.768 555.2ZM715.768 590.51C705.639 590.51 697.935 593.577 692.656 599.712C687.377 605.847 684.738 614.121 684.738 624.536V638.232C684.738 648.647 687.377 656.921 692.656 663.056C697.935 669.191 705.639 672.258 715.768 672.258C725.897 672.258 733.601 669.191 738.88 663.056C744.301 656.921 747.012 648.647 747.012 638.232V624.536C747.012 614.121 744.301 605.847 738.88 599.712C733.601 593.577 725.897 590.51 715.768 590.51ZM903.448 557.768C912.578 557.768 920.71 559.908 927.844 564.188C934.977 568.325 940.541 574.103 944.536 581.522C948.53 588.798 950.528 597.001 950.528 606.132V608.914C950.528 618.045 948.53 626.319 944.536 633.738C940.541 641.157 934.977 647.006 927.844 651.286C920.71 655.423 912.578 657.492 903.448 657.492H868.138V705H820.844V557.768H903.448ZM868.138 623.038H887.612C892.605 623.038 896.314 621.754 898.74 619.186C901.308 616.618 902.592 613.123 902.592 608.7V606.988C902.592 602.423 901.308 598.927 898.74 596.502C896.314 593.934 892.605 592.65 887.612 592.65H868.138V623.038ZM975.283 557.768H1102.61V593.078H1022.58V613.408H1091.06V647.22H1022.58V669.69H1104.11V705H975.283V557.768ZM1269.46 602.922C1269.46 611.91 1267.04 620.042 1262.19 627.318C1257.34 634.594 1250.28 639.944 1241 643.368L1273.74 705H1220.67L1194.56 651.286H1177.02V705H1129.72V557.768H1219.82C1230.37 557.768 1239.36 559.837 1246.78 563.974C1254.34 567.969 1259.98 573.461 1263.69 580.452C1267.54 587.3 1269.46 594.79 1269.46 602.922ZM1221.31 604.848C1221.31 600.996 1220.03 597.786 1217.46 595.218C1214.89 592.65 1211.76 591.366 1208.05 591.366H1177.02V618.544H1208.05C1211.76 618.544 1214.89 617.26 1217.46 614.692C1220.03 611.981 1221.31 608.7 1221.31 604.848Z" fill="#4328E9" fill-opacity="0.03"/>
<path d="M79.608 279.768C131.111 279.768 156.862 304.307 156.862 353.384C156.862 402.461 131.111 427 79.608 427H15.836V279.768H79.608ZM63.13 391.69H78.752C98.5827 391.69 108.498 381.061 108.498 359.804V346.964C108.498 325.707 98.5827 315.078 78.752 315.078H63.13V391.69ZM182.397 279.768H309.727V315.078H229.691V335.408H298.171V369.22H229.691V391.69H311.225V427H182.397V279.768ZM376.854 427L324.638 279.768H375.142L404.674 378.208H405.53L435.276 279.768H483.64L431.638 427H376.854ZM503.397 279.768H550.691V389.336H626.233V427H503.397V279.768ZM715.768 277.2C741.163 277.2 760.779 283.691 774.618 296.674C788.457 309.657 795.376 328.56 795.376 353.384C795.376 378.208 788.457 397.111 774.618 410.094C760.779 423.077 741.163 429.568 715.768 429.568C690.373 429.568 670.757 423.148 656.918 410.308C643.222 397.325 636.374 378.351 636.374 353.384C636.374 328.417 643.222 309.514 656.918 296.674C670.757 283.691 690.373 277.2 715.768 277.2ZM715.768 312.51C705.639 312.51 697.935 315.577 692.656 321.712C687.377 327.847 684.738 336.121 684.738 346.536V360.232C684.738 370.647 687.377 378.921 692.656 385.056C697.935 391.191 705.639 394.258 715.768 394.258C725.897 394.258 733.601 391.191 738.88 385.056C744.301 378.921 747.012 370.647 747.012 360.232V346.536C747.012 336.121 744.301 327.847 738.88 321.712C733.601 315.577 725.897 312.51 715.768 312.51ZM903.448 279.768C912.578 279.768 920.71 281.908 927.844 286.188C934.977 290.325 940.541 296.103 944.536 303.522C948.53 310.798 950.528 319.001 950.528 328.132V330.914C950.528 340.045 948.53 348.319 944.536 355.738C940.541 363.157 934.977 369.006 927.844 373.286C920.71 377.423 912.578 379.492 903.448 379.492H868.138V427H820.844V279.768H903.448ZM868.138 345.038H887.612C892.605 345.038 896.314 343.754 898.74 341.186C901.308 338.618 902.592 335.123 902.592 330.7V328.988C902.592 324.423 901.308 320.927 898.74 318.502C896.314 315.934 892.605 314.65 887.612 314.65H868.138V345.038ZM975.283 279.768H1102.61V315.078H1022.58V335.408H1091.06V369.22H1022.58V391.69H1104.11V427H975.283V279.768ZM1269.46 324.922C1269.46 333.91 1267.04 342.042 1262.19 349.318C1257.34 356.594 1250.28 361.944 1241 365.368L1273.74 427H1220.67L1194.56 373.286H1177.02V427H1129.72V279.768H1219.82C1230.37 279.768 1239.36 281.837 1246.78 285.974C1254.34 289.969 1259.98 295.461 1263.69 302.452C1267.54 309.3 1269.46 316.79 1269.46 324.922ZM1221.31 326.848C1221.31 322.996 1220.03 319.786 1217.46 317.218C1214.89 314.65 1211.76 313.366 1208.05 313.366H1177.02V340.544H1208.05C1211.76 340.544 1214.89 339.26 1217.46 336.692C1220.03 333.981 1221.31 330.7 1221.31 326.848Z" fill="#4328E9" fill-opacity="0.03"/>
<path d="M79.608 40.768C131.111 40.768 156.862 65.3067 156.862 114.384C156.862 163.461 131.111 188 79.608 188H15.836V40.768H79.608ZM63.13 152.69H78.752C98.5827 152.69 108.498 142.061 108.498 120.804V107.964C108.498 86.7067 98.5827 76.078 78.752 76.078H63.13V152.69ZM182.397 40.768H309.727V76.078H229.691V96.408H298.171V130.22H229.691V152.69H311.225V188H182.397V40.768ZM376.854 188L324.638 40.768H375.142L404.674 139.208H405.53L435.276 40.768H483.64L431.638 188H376.854ZM503.397 40.768H550.691V150.336H626.233V188H503.397V40.768ZM715.768 38.2C741.163 38.2 760.779 44.6913 774.618 57.674C788.457 70.6567 795.376 89.56 795.376 114.384C795.376 139.208 788.457 158.111 774.618 171.094C760.779 184.077 741.163 190.568 715.768 190.568C690.373 190.568 670.757 184.148 656.918 171.308C643.222 158.325 636.374 139.351 636.374 114.384C636.374 89.4173 643.222 70.514 656.918 57.674C670.757 44.6913 690.373 38.2 715.768 38.2ZM715.768 73.51C705.639 73.51 697.935 76.5773 692.656 82.712C687.377 88.8467 684.738 97.1213 684.738 107.536V121.232C684.738 131.647 687.377 139.921 692.656 146.056C697.935 152.191 705.639 155.258 715.768 155.258C725.897 155.258 733.601 152.191 738.88 146.056C744.301 139.921 747.012 131.647 747.012 121.232V107.536C747.012 97.1213 744.301 88.8467 738.88 82.712C733.601 76.5773 725.897 73.51 715.768 73.51ZM903.448 40.768C912.578 40.768 920.71 42.908 927.844 47.188C934.977 51.3253 940.541 57.1033 944.536 64.522C948.53 71.798 950.528 80.0013 950.528 89.132V91.914C950.528 101.045 948.53 109.319 944.536 116.738C940.541 124.157 934.977 130.006 927.844 134.286C920.71 138.423 912.578 140.492 903.448 140.492H868.138V188H820.844V40.768H903.448ZM868.138 106.038H887.612C892.605 106.038 896.314 104.754 898.74 102.186C901.308 99.618 902.592 96.1227 902.592 91.7V89.988C902.592 85.4227 901.308 81.9273 898.74 79.502C896.314 76.934 892.605 75.65 887.612 75.65H868.138V106.038ZM975.283 40.768H1102.61V76.078H1022.58V96.408H1091.06V130.22H1022.58V152.69H1104.11V188H975.283V40.768ZM1269.46 85.922C1269.46 94.91 1267.04 103.042 1262.19 110.318C1257.34 117.594 1250.28 122.944 1241 126.368L1273.74 188H1220.67L1194.56 134.286H1177.02V188H1129.72V40.768H1219.82C1230.37 40.768 1239.36 42.8367 1246.78 46.974C1254.34 50.9687 1259.98 56.4613 1263.69 63.452C1267.54 70.3 1269.46 77.79 1269.46 85.922ZM1221.31 87.848C1221.31 83.996 1220.03 80.786 1217.46 78.218C1214.89 75.65 1211.76 74.366 1208.05 74.366H1177.02V101.544H1208.05C1211.76 101.544 1214.89 100.26 1217.46 97.692C1220.03 94.9813 1221.31 91.7 1221.31 87.848Z" fill="#4328E9" fill-opacity="0.03"/>
</svg>
