<svg width="122" height="24" viewBox="0 0 122 24" fill="none" xmlns="http://www.w3.org/2000/svg">
<path d="M15.2268 1.20208C17.506 1.41414 19.3104 2.11273 20.64 3.29784C21.9957 4.46497 22.5647 6.0896 22.347 8.17174C22.1738 9.82936 21.3523 11.3144 19.8828 12.6269C18.4153 13.9192 16.6056 14.8938 14.4536 15.5509C12.3256 16.2102 10.23 16.4438 8.16675 16.2518C7.95083 16.2317 7.82099 16.1993 7.77724 16.1544L8.04275 15.3524C9.66496 15.3605 11.2808 15.0822 12.8902 14.5175C14.4996 13.9528 15.8433 13.1491 16.9212 12.1064C18.0253 11.0457 18.6503 9.81789 18.7961 8.42307C18.9546 6.90695 18.5296 5.64271 17.5211 4.63036C16.5365 3.62023 14.9767 3.01584 12.8415 2.81716C11.1861 2.66314 9.39983 2.83373 7.48277 3.32894C5.59182 3.80616 3.90765 4.50674 2.43026 5.43067L1.81308 4.73029C3.70813 3.51863 5.86572 2.57634 8.28585 1.90341C10.73 1.23272 13.0436 0.99894 15.2268 1.20208ZM5.72488 21.5357L2.30315 22.289L4.03699 5.70264L7.46189 4.91909L5.72488 21.5357Z" fill="black"/>
<path d="M44 13V1.18H48C48.7467 1.18 49.32 1.34667 49.72 1.68C50.12 2.01333 50.32 2.50667 50.32 3.16V5.26C50.32 5.76667 50.2533 6.24 50.12 6.68C50 7.10667 49.76 7.45333 49.4 7.72C49.0533 7.98667 48.5467 8.12 47.88 8.12H46V13H44ZM46 7.04H47.22C47.62 7.04 47.92 6.88667 48.12 6.58C48.32 6.26 48.42 5.74667 48.42 5.04V3.98C48.42 3.35333 48.3333 2.90667 48.16 2.64C47.9867 2.37333 47.7467 2.24 47.44 2.24H46V7.04ZM51.7725 13V3.1H56.9925V4.42H53.7525V7.14H56.4325V8.62H53.7525V11.7H56.9925V13H51.7725ZM58.3741 13V3.1H62.2141C62.6941 3.1 63.1141 3.16 63.4741 3.28C63.8341 3.4 64.1141 3.6 64.3141 3.88C64.5274 4.14667 64.6341 4.50667 64.6341 4.96V10.88C64.6341 11.6133 64.4207 12.1533 63.9941 12.5C63.5674 12.8333 62.8941 13 61.9741 13H58.3741ZM60.3341 12.02H61.6741C61.8741 12.02 62.0541 11.9933 62.2141 11.94C62.3741 11.8867 62.5007 11.7933 62.5941 11.66C62.7007 11.5133 62.7541 11.3067 62.7541 11.04V5.16C62.7541 4.8 62.6607 4.54667 62.4741 4.4C62.3007 4.24 62.0341 4.16 61.6741 4.16H60.3341V12.02ZM66.4209 13V3.1H70.4409C71.1609 3.1 71.7209 3.24667 72.1209 3.54C72.5209 3.82 72.7209 4.22667 72.7209 4.76V6.32C72.7209 6.85333 72.5409 7.3 72.1809 7.66C71.8343 8.00667 71.3209 8.2 70.6409 8.24V8.26C71.0809 8.3 71.3943 8.42 71.5809 8.62C71.7676 8.82 71.9409 9.14 72.1009 9.58L73.2209 13H71.1609L70.2409 9.72C70.1876 9.53333 70.1209 9.36667 70.0409 9.22C69.9743 9.07333 69.8876 8.96 69.7809 8.88C69.6743 8.78667 69.5276 8.74 69.3409 8.74H68.3809V13H66.4209ZM68.3809 7.44H69.6209C69.9943 7.44 70.2943 7.36667 70.5209 7.22C70.7609 7.06 70.8809 6.76 70.8809 6.32V5.1C70.8809 4.75333 70.7809 4.50667 70.5809 4.36C70.3943 4.2 70.1543 4.12 69.8609 4.12H68.3809V7.44ZM77.5445 13.2C76.8645 13.2 76.2912 13.12 75.8245 12.96C75.3712 12.8 75.0312 12.52 74.8045 12.12C74.5779 11.7067 74.4645 11.1333 74.4645 10.4V5.18C74.4645 4.34 74.7445 3.76 75.3045 3.44C75.8645 3.10667 76.6179 2.94 77.5645 2.94C78.5245 2.94 79.2912 3.10667 79.8645 3.44C80.4379 3.76 80.7245 4.34 80.7245 5.18V10.4C80.7245 11.1333 80.6045 11.7067 80.3645 12.12C80.1379 12.52 79.7912 12.8 79.3245 12.96C78.8579 13.12 78.2645 13.2 77.5445 13.2ZM77.5645 12.08C77.9779 12.08 78.2912 12.0067 78.5045 11.86C78.7312 11.7133 78.8445 11.46 78.8445 11.1V5.1C78.8445 4.74 78.7312 4.48667 78.5045 4.34C78.2779 4.19333 77.9645 4.12 77.5645 4.12C77.1645 4.12 76.8512 4.19333 76.6245 4.34C76.4112 4.48667 76.3045 4.74 76.3045 5.1V11.1C76.3045 11.46 76.4112 11.7133 76.6245 11.86C76.8379 12.0067 77.1512 12.08 77.5645 12.08ZM85.9922 13V1.18H89.9922C90.7389 1.18 91.3122 1.34667 91.7122 1.68C92.1122 2.01333 92.3122 2.50667 92.3122 3.16V5.26C92.3122 5.76667 92.2455 6.24 92.1122 6.68C91.9922 7.10667 91.7522 7.45333 91.3922 7.72C91.0455 7.98667 90.5389 8.12 89.8722 8.12H87.9922V13H85.9922ZM87.9922 7.04H89.2122C89.6122 7.04 89.9122 6.88667 90.1122 6.58C90.3122 6.26 90.4122 5.74667 90.4122 5.04V3.98C90.4122 3.35333 90.3255 2.90667 90.1522 2.64C89.9789 2.37333 89.7389 2.24 89.4322 2.24H87.9922V7.04ZM92.4388 13L94.6988 3.1H97.3188L99.5388 13H97.4388L96.9988 11.14H94.8788L94.4388 13H92.4388ZM94.9188 10.2H96.9788L95.9588 4.7L94.9188 10.2ZM103.758 13.2C103.104 13.2 102.544 13.1333 102.078 13C101.624 12.8667 101.278 12.6133 101.038 12.24C100.798 11.8533 100.678 11.2933 100.678 10.56V3.1H102.558V11.08C102.558 11.44 102.671 11.6933 102.898 11.84C103.124 11.9733 103.411 12.04 103.758 12.04C104.118 12.04 104.411 11.9733 104.638 11.84C104.864 11.7067 104.978 11.4533 104.978 11.08V3.1H106.858V10.56C106.858 11.2933 106.738 11.8533 106.498 12.24C106.258 12.6133 105.904 12.8667 105.438 13C104.984 13.1333 104.424 13.2 103.758 13.2ZM108.745 13V3.1H110.605V11.7H113.485V13H108.745ZM117.525 13.2C116.845 13.2 116.272 13.12 115.805 12.96C115.352 12.8 115.012 12.52 114.785 12.12C114.558 11.7067 114.445 11.1333 114.445 10.4V5.18C114.445 4.34 114.725 3.76 115.285 3.44C115.845 3.10667 116.598 2.94 117.545 2.94C118.505 2.94 119.272 3.10667 119.845 3.44C120.418 3.76 120.705 4.34 120.705 5.18V10.4C120.705 11.1333 120.585 11.7067 120.345 12.12C120.118 12.52 119.772 12.8 119.305 12.96C118.838 13.12 118.245 13.2 117.525 13.2ZM117.545 12.08C117.958 12.08 118.272 12.0067 118.485 11.86C118.712 11.7133 118.825 11.46 118.825 11.1V5.1C118.825 4.74 118.712 4.48667 118.485 4.34C118.258 4.19333 117.945 4.12 117.545 4.12C117.145 4.12 116.832 4.19333 116.605 4.34C116.392 4.48667 116.285 4.74 116.285 5.1V11.1C116.285 11.46 116.392 11.7133 116.605 11.86C116.818 12.0067 117.132 12.08 117.545 12.08Z" fill="black"/>
<path d="M44.936 23.066C44.65 23.066 44.4007 23.0073 44.188 22.89C43.9753 22.7727 43.8103 22.5783 43.693 22.307C43.5757 22.0283 43.517 21.6507 43.517 21.174V20.822C43.5537 20.822 43.594 20.822 43.638 20.822C43.682 20.822 43.7223 20.822 43.759 20.822V21.174C43.759 21.6067 43.8067 21.9477 43.902 22.197C44.0047 22.439 44.144 22.6113 44.32 22.714C44.5033 22.8093 44.7087 22.857 44.936 22.857C45.2953 22.857 45.596 22.747 45.838 22.527C46.08 22.307 46.201 21.9183 46.201 21.361C46.201 21.0017 46.146 20.7267 46.036 20.536C45.9333 20.3453 45.7793 20.195 45.574 20.085C45.3687 19.975 45.123 19.865 44.837 19.755C44.617 19.667 44.408 19.5643 44.21 19.447C44.012 19.3297 43.8507 19.1683 43.726 18.963C43.6087 18.7503 43.55 18.4717 43.55 18.127C43.55 17.775 43.5977 17.478 43.693 17.236C43.7883 16.994 43.9423 16.8107 44.155 16.686C44.3677 16.5613 44.6427 16.499 44.98 16.499C45.42 16.499 45.7647 16.6237 46.014 16.873C46.2633 17.115 46.388 17.4523 46.388 17.885V18.556C46.3513 18.556 46.311 18.556 46.267 18.556C46.2303 18.556 46.19 18.556 46.146 18.556V17.907C46.146 17.533 46.0433 17.2397 45.838 17.027C45.6327 16.8143 45.3467 16.708 44.98 16.708C44.5693 16.708 44.2687 16.8253 44.078 17.06C43.8873 17.2947 43.792 17.6467 43.792 18.116C43.792 18.4313 43.8507 18.6843 43.968 18.875C44.0927 19.0583 44.2503 19.205 44.441 19.315C44.6317 19.4177 44.8333 19.5093 45.046 19.59C45.3833 19.722 45.6547 19.8577 45.86 19.997C46.0653 20.129 46.2157 20.2977 46.311 20.503C46.4063 20.7083 46.454 20.9907 46.454 21.35C46.454 21.7753 46.388 22.1127 46.256 22.362C46.124 22.6113 45.9443 22.791 45.717 22.901C45.4897 23.011 45.2293 23.066 44.936 23.066ZM49.1526 23.11C48.8373 23.11 48.5696 23.077 48.3496 23.011C48.1369 22.945 47.9719 22.824 47.8546 22.648C47.7446 22.4647 47.6896 22.208 47.6896 21.878V18.677C47.6896 18.1857 47.8179 17.863 48.0746 17.709C48.3313 17.555 48.6979 17.478 49.1746 17.478C49.6586 17.478 50.0253 17.5587 50.2746 17.72C50.5313 17.8813 50.6596 18.2003 50.6596 18.677V21.878C50.6596 22.2153 50.6009 22.4757 50.4836 22.659C50.3736 22.835 50.2049 22.9523 49.9776 23.011C49.7576 23.077 49.4826 23.11 49.1526 23.11ZM49.1636 22.923C49.5889 22.923 49.9006 22.8533 50.0986 22.714C50.2966 22.5747 50.3956 22.2997 50.3956 21.889V18.699C50.3956 18.2737 50.2893 17.995 50.0766 17.863C49.8713 17.731 49.5669 17.665 49.1636 17.665C48.7603 17.665 48.4559 17.731 48.2506 17.863C48.0453 17.995 47.9426 18.2737 47.9426 18.699V21.889C47.9426 22.2997 48.0416 22.5747 48.2396 22.714C48.4376 22.8533 48.7456 22.923 49.1636 22.923ZM52.2149 23V17.555H54.8329V17.753H52.4899V20.03H54.2939V20.239H52.4899V23H52.2149ZM56.2748 23V17.753H55.1418V17.555H57.7048V17.753H56.5388V23H56.2748ZM59.078 23L58.088 17.555H58.33L59.243 22.56L60.398 17.555H60.585L61.718 22.549L62.653 17.555H62.895L61.905 23H61.608L60.497 18.237L59.397 23H59.078ZM62.9427 23L64.5487 17.555H64.7577L66.3527 23H66.0887L65.6487 21.57H63.6137L63.1847 23H62.9427ZM63.6467 21.394H65.6267L64.6477 17.995L63.6467 21.394ZM67.4044 23V17.555H69.1754C69.4834 17.555 69.751 17.621 69.9784 17.753C70.213 17.885 70.3304 18.116 70.3304 18.446V19.348C70.3304 19.6853 70.202 19.931 69.9454 20.085C69.696 20.239 69.388 20.316 69.0214 20.316V20.305C69.256 20.2977 69.432 20.3637 69.5494 20.503C69.6667 20.6423 69.7767 20.8513 69.8794 21.13L70.5724 23H70.2974L69.6374 21.152C69.6007 21.042 69.5494 20.9283 69.4834 20.811C69.4174 20.6863 69.3257 20.5837 69.2084 20.503C69.0984 20.415 68.948 20.371 68.7574 20.371H67.6684V23H67.4044ZM67.6684 20.184H68.9334C69.2707 20.184 69.542 20.1217 69.7474 19.997C69.96 19.8723 70.0664 19.634 70.0664 19.282V18.49C70.0664 18.2333 69.9747 18.0463 69.7914 17.929C69.608 17.8043 69.399 17.742 69.1644 17.742H67.6684V20.184ZM71.8301 23V17.555H74.4481V17.753H72.1051V20.03H73.9091V20.239H72.1051V22.791H74.4481V23H71.8301ZM77.7818 23V16.499H79.4868C79.7508 16.499 79.9818 16.5393 80.1798 16.62C80.3778 16.6933 80.5318 16.8327 80.6418 17.038C80.7592 17.2433 80.8178 17.5367 80.8178 17.918V21.57C80.8178 21.9513 80.7592 22.2483 80.6418 22.461C80.5318 22.6663 80.3742 22.8093 80.1688 22.89C79.9708 22.9633 79.7398 23 79.4758 23H77.7818ZM78.0458 22.802H79.4648C79.7948 22.802 80.0588 22.7177 80.2568 22.549C80.4548 22.373 80.5538 22.0393 80.5538 21.548V17.962C80.5538 17.4707 80.4548 17.137 80.2568 16.961C80.0588 16.785 79.7948 16.697 79.4648 16.697H78.0458V22.802ZM82.3897 23V17.555H85.0077V17.753H82.6647V20.03H84.4687V20.239H82.6647V22.791H85.0077V23H82.3897ZM86.843 23L85.556 17.555H85.798L86.997 22.494H86.953L88.119 17.555H88.372L87.074 23H86.843ZM89.4581 23V17.555H92.0761V17.753H89.7331V20.03H91.5371V20.239H89.7331V22.791H92.0761V23H89.4581ZM93.1964 23V17.555H93.4604V22.791H95.4844V23H93.1964ZM97.718 23.11C97.4027 23.11 97.135 23.077 96.915 23.011C96.7024 22.945 96.5374 22.824 96.42 22.648C96.31 22.4647 96.255 22.208 96.255 21.878V18.677C96.255 18.1857 96.3834 17.863 96.64 17.709C96.8967 17.555 97.2634 17.478 97.74 17.478C98.224 17.478 98.5907 17.5587 98.84 17.72C99.0967 17.8813 99.225 18.2003 99.225 18.677V21.878C99.225 22.2153 99.1664 22.4757 99.049 22.659C98.939 22.835 98.7704 22.9523 98.543 23.011C98.323 23.077 98.048 23.11 97.718 23.11ZM97.729 22.923C98.1544 22.923 98.466 22.8533 98.664 22.714C98.862 22.5747 98.961 22.2997 98.961 21.889V18.699C98.961 18.2737 98.8547 17.995 98.642 17.863C98.4367 17.731 98.1324 17.665 97.729 17.665C97.3257 17.665 97.0214 17.731 96.816 17.863C96.6107 17.995 96.508 18.2737 96.508 18.699V21.889C96.508 22.2997 96.607 22.5747 96.805 22.714C97.003 22.8533 97.311 22.923 97.729 22.923ZM100.78 23V17.555H102.551C102.859 17.555 103.127 17.621 103.354 17.753C103.589 17.885 103.706 18.116 103.706 18.446V19.48C103.706 19.6487 103.673 19.8173 103.607 19.986C103.549 20.1473 103.42 20.283 103.222 20.393C103.032 20.503 102.731 20.558 102.32 20.558H101.055V23H100.78ZM101.055 20.36H102.309C102.676 20.36 102.955 20.283 103.145 20.129C103.343 19.975 103.442 19.744 103.442 19.436V18.512C103.442 18.2553 103.351 18.0647 103.167 17.94C102.984 17.808 102.775 17.742 102.54 17.742H101.055V20.36ZM104.862 23V17.555H107.48V17.753H105.137V20.03H106.941V20.239H105.137V22.791H107.48V23H104.862ZM108.601 23V17.555H110.372C110.68 17.555 110.947 17.621 111.175 17.753C111.409 17.885 111.527 18.116 111.527 18.446V19.348C111.527 19.6853 111.398 19.931 111.142 20.085C110.892 20.239 110.584 20.316 110.218 20.316V20.305C110.452 20.2977 110.628 20.3637 110.746 20.503C110.863 20.6423 110.973 20.8513 111.076 21.13L111.769 23H111.494L110.834 21.152C110.797 21.042 110.746 20.9283 110.68 20.811C110.614 20.6863 110.522 20.5837 110.405 20.503C110.295 20.415 110.144 20.371 109.954 20.371H108.865V23H108.601ZM108.865 20.184H110.13C110.467 20.184 110.738 20.1217 110.944 19.997C111.156 19.8723 111.263 19.634 111.263 19.282V18.49C111.263 18.2333 111.171 18.0463 110.988 17.929C110.804 17.8043 110.595 17.742 110.361 17.742H108.865V20.184Z" fill="black" fill-opacity="0.3"/>
<line x1="33.5" y1="-2.18557e-08" x2="33.5" y2="24" stroke="black"/>
</svg>
