<svg width="634" height="568" viewBox="0 0 634 568" fill="none" xmlns="http://www.w3.org/2000/svg">
<path d="M460.287 322.75V479.379L487.873 522.077L489.972 525.325H598.817L601.017 322.75H460.287Z" fill="#E6E6E6"/>
<path opacity="0.1" d="M460.287 322.75V479.379L487.873 522.077L489.566 322.75H460.287Z" fill="black"/>
<path d="M197.519 318.572V475.203L169.933 517.9L167.834 521.147H58.9883L56.7891 318.572H197.519Z" fill="#E6E6E6"/>
<path opacity="0.1" d="M197.519 318.572V475.203L169.933 517.9L168.24 318.572H197.519Z" fill="black"/>
<path d="M634 315.44V324.838H42.4962V311.263L97.4685 284.114H585.625L634 315.44Z" fill="#E6E6E6"/>
<path opacity="0.1" d="M634 315.44V324.838H42.4962V311.263L634 315.44Z" fill="black"/>
<path d="M127.154 362.429H100.767L89.7724 355.12H139.248L127.154 362.429Z" fill="#3F3D56"/>
<path d="M127.154 392.711H100.767L89.7724 385.402H139.248L127.154 392.711Z" fill="#3F3D56"/>
<path d="M127.154 435.524H100.767L89.7724 428.213H139.248L127.154 435.524Z" fill="#3F3D56"/>
<path d="M127.154 478.335H100.767L89.7724 471.026H139.248L127.154 478.335Z" fill="#3F3D56"/>
<path d="M530.652 366.606H557.039L568.033 359.296H518.558L530.652 366.606Z" fill="#3F3D56"/>
<path d="M530.652 396.887H557.039L568.033 389.578H518.558L530.652 396.887Z" fill="#3F3D56"/>
<path d="M530.652 439.7H557.039L568.033 432.391H518.558L530.652 439.7Z" fill="#3F3D56"/>
<path d="M530.652 482.512H557.039L568.033 475.203H518.558L530.652 482.512Z" fill="#3F3D56"/>
<path d="M548.621 102.987H326.48C325.377 102.987 324.284 103.193 323.265 103.594C322.246 103.995 321.32 104.582 320.539 105.323C319.759 106.064 319.141 106.944 318.718 107.912C318.296 108.88 318.079 109.918 318.079 110.966V253.086C318.079 254.133 318.296 255.171 318.718 256.139C319.141 257.107 319.759 257.987 320.539 258.728C321.32 259.469 322.246 260.057 323.265 260.457C324.284 260.858 325.377 261.065 326.48 261.065H410.807L407.647 280.221C407.647 280.221 389.593 289.331 402.287 289.599C414.982 289.867 474.788 289.599 474.788 289.599C474.788 289.599 486.355 289.599 468.018 279.954L465.046 261.065H548.621C549.724 261.065 550.816 260.858 551.836 260.457C552.855 260.057 553.781 259.469 554.561 258.728C555.342 257.987 555.96 257.107 556.383 256.139C556.805 255.171 557.022 254.133 557.022 253.086V110.966C557.022 109.918 556.805 108.88 556.383 107.912C555.96 106.944 555.342 106.064 554.561 105.323C553.781 104.582 552.855 103.995 551.836 103.594C550.816 103.193 549.724 102.987 548.621 102.987Z" fill="#3F3D56"/>
<path d="M548.982 111.426H326.119V229.851H548.982V111.426Z" fill="#F2F2F2"/>
<path d="M437.55 109.015C438.329 109.015 438.961 108.415 438.961 107.675C438.961 106.936 438.329 106.336 437.55 106.336C436.771 106.336 436.14 106.936 436.14 107.675C436.14 108.415 436.771 109.015 437.55 109.015Z" fill="#F2F2F2"/>
<path d="M437.55 255.304C440.511 255.304 442.91 253.025 442.91 250.213C442.91 247.402 440.511 245.123 437.55 245.123C434.59 245.123 432.19 247.402 432.19 250.213C432.19 253.025 434.59 255.304 437.55 255.304Z" fill="#F2F2F2"/>
<path d="M429.198 304.067V306.747H277.426V304.603L277.635 304.067L281.375 294.422H426.095L429.198 304.067Z" fill="#3F3D56"/>
<path d="M487.605 301.444C487.328 302.567 486.285 303.751 483.926 304.871C475.463 308.89 458.255 303.799 458.255 303.799C458.255 303.799 444.996 301.656 444.996 296.029C445.368 295.787 445.756 295.568 446.158 295.373C449.716 293.585 461.514 289.173 482.432 295.56C483.973 296.019 485.35 296.876 486.408 298.034C486.877 298.473 487.23 299.01 487.438 299.603C487.646 300.195 487.703 300.826 487.605 301.444Z" fill="#3F3D56"/>
<path opacity="0.1" d="M487.605 301.444C477.246 305.214 468.013 305.495 458.537 299.244C454.953 296.728 450.614 295.371 446.158 295.373C449.716 293.585 461.514 289.173 482.432 295.56C483.973 296.019 485.35 296.876 486.409 298.034C486.878 298.473 487.231 299.01 487.439 299.603C487.646 300.195 487.703 300.826 487.605 301.444Z" fill="black"/>
<path d="M474.617 299.244C476.642 299.244 478.284 298.765 478.284 298.173C478.284 297.581 476.642 297.101 474.617 297.101C472.591 297.101 470.949 297.581 470.949 298.173C470.949 298.765 472.591 299.244 474.617 299.244Z" fill="#F2F2F2"/>
<path opacity="0.1" d="M429.198 304.067V306.747H277.426V304.603L277.635 304.067H429.198Z" fill="black"/>
<path d="M84.3875 1.00012C82.8472 0.880011 81.3048 1.20725 79.9647 1.93849C78.6489 2.7943 77.8196 4.2936 76.973 5.68878C73.7364 11.0868 69.3547 15.7876 64.1054 19.4934C60.2819 22.1537 55.421 25.4706 56.0751 30.3754C56.4202 31.9952 57.0503 33.5481 57.9388 34.969C61.466 41.7314 71.0911 46.9572 70.1444 54.6736C73.6487 49.1018 68.9614 46.3466 72.4658 40.7748C74.1346 38.1214 77.0337 35.1261 79.5534 36.7925C80.397 37.3504 80.951 38.3512 81.8294 38.8407C83.9255 40.0089 86.1554 37.7756 88.0108 36.1938C94.4087 30.739 103.507 32.168 111.469 33.8676C115.227 34.67 119.356 35.7226 121.578 39.1345C124.499 43.6203 118.802 48.4651 117.363 53.5367C117.245 53.9689 117.24 54.4216 117.347 54.8563C117.453 55.2909 117.67 55.6945 117.976 56.0325C118.283 56.3705 118.672 56.6329 119.109 56.7972C119.546 56.9615 120.018 57.0229 120.485 56.976C122.874 56.7522 125.704 56.5688 125.846 55.5732C128.851 55.6748 132.534 55.3515 133.822 52.3791C134.215 51.203 134.424 49.9781 134.439 48.7442C134.912 43.7512 137.143 39.1961 138.621 34.444C140.099 29.6918 140.742 24.1227 138.248 19.9094C137.357 18.5075 136.256 17.2367 134.98 16.137C120.824 3.12642 102.212 0.980811 84.3875 1.00012Z" fill="#2F2E41"/>
<path d="M73.223 64.42C73.223 64.42 76.3016 88.7858 65.0134 90.735C53.7252 92.6843 75.2754 125.822 75.2754 125.822L126.585 131.67L114.271 92.6843C114.271 92.6843 106.061 89.7604 111.192 70.2677C116.323 50.7751 73.223 64.42 73.223 64.42Z" fill="#FFB8B8"/>
<path d="M41.9239 483.024L46.0291 536.629H67.5785L61.422 483.024H41.9239Z" fill="#FFB8B8"/>
<path d="M199.959 381.663L203.037 426.496L226.64 416.75L217.404 379.714L199.959 381.663Z" fill="#FFB8B8"/>
<path d="M26.5309 278.352C26.5309 278.352 27.5571 334.88 33.7143 353.398C39.8716 371.916 38.8453 372.891 37.8192 375.815C36.793 378.739 35.7667 376.79 35.7667 381.663C35.7667 386.536 33.7144 463.532 35.7667 470.354C37.8191 477.177 29.6096 488.872 35.7667 489.847C41.9239 490.821 70.6575 489.847 71.6837 483.999C72.7099 478.151 63.4741 476.202 67.5789 472.304C71.6837 468.405 77.8409 388.485 77.8409 388.485L92.2077 332.931L118.889 303.692H175.33L192.775 368.018C192.775 368.018 185.592 386.536 190.723 386.536C195.854 386.536 226.64 392.384 226.64 370.942C226.64 349.5 216.378 286.149 214.325 284.2C212.273 282.25 215.352 275.428 212.273 272.504C209.194 269.58 173.277 249.113 159.937 245.214C146.596 241.316 127.882 236.676 127.882 236.676L26.5309 278.352Z" fill="#2F2E41"/>
<path d="M226.64 408.952C226.64 408.952 211.247 404.079 204.063 418.699C196.88 433.318 199.959 437.217 199.959 437.217C199.959 437.217 223.561 445.014 227.666 441.115C229.452 439.419 235.123 438.83 240.96 438.705C249.851 438.516 252.216 426.57 243.82 423.788C243.569 423.705 243.315 423.633 243.059 423.572C234.849 421.623 226.64 408.952 226.64 408.952Z" fill="#2F2E41"/>
<path d="M96.3125 80.5014C113.315 80.5014 127.098 67.4107 127.098 51.2624C127.098 35.1142 113.315 22.0235 96.3125 22.0235C79.3098 22.0235 65.5265 35.1142 65.5265 51.2624C65.5265 67.4107 79.3098 80.5014 96.3125 80.5014Z" fill="#FFB8B8"/>
<path d="M56.2907 102.918C56.2907 102.918 106.574 112.664 118.889 97.0701C131.203 81.476 136.334 140.929 136.334 140.929L142.491 203.305L133.256 237.417C133.256 237.417 85.0243 274.453 69.6313 277.377C54.2383 280.301 30.6357 282.25 30.6357 282.25C30.6357 282.25 37.8191 174.066 37.8191 172.117C37.8191 170.168 56.2907 102.918 56.2907 102.918Z" fill="#4328E9"/>
<path d="M71.5832 84.639C71.5832 84.639 60.3955 78.5521 57.3169 84.3999C54.2383 90.2477 25.5047 104.867 22.4261 104.867C19.3475 104.867 28.5833 185.762 24.4785 195.508C20.3737 205.254 0.875952 276.402 12.1641 282.25C23.4523 288.098 15.2427 276.402 26.5309 291.022C37.8191 305.641 93.2339 305.641 96.3125 299.794C99.3911 293.946 71.6837 250.087 76.8147 209.153C81.9457 168.218 90.1553 111.69 82.9719 103.893C75.7885 96.0955 71.5832 84.639 71.5832 84.639Z" fill="#2F2E41"/>
<path d="M108.627 91.2223L110.056 86.5504C110.056 86.5504 152.753 99.994 154.806 108.766C156.858 117.537 155.832 178.939 148.649 183.812C141.465 188.686 131.203 196.483 138.387 208.178C145.57 219.874 153.78 232.544 159.937 233.519C166.094 234.493 177.382 241.316 174.304 248.138C171.225 254.96 134.282 242.29 134.282 242.29C134.282 242.29 109.653 224.747 110.679 197.457C111.705 170.168 108.627 91.2223 108.627 91.2223Z" fill="#2F2E41"/>
<path d="M144.544 206.229L119.915 250.087C119.915 250.087 83.9981 285.174 104.522 289.073C125.046 292.971 136.334 256.91 136.334 256.91L163.015 220.848L144.544 206.229Z" fill="#FFB8B8"/>
<path d="M85.8872 8.65043C84.6463 8.5631 83.4034 8.79207 82.2869 9.31366C81.2773 10.0139 80.4453 10.9195 79.8515 11.9643C77.1144 15.8747 73.5464 19.1982 69.3767 21.7214C66.2643 23.6016 62.3073 25.946 62.8398 29.4127C63.1289 30.575 63.6433 31.676 64.3569 32.6594C67.2381 37.4873 68.3851 43.0751 67.6243 48.5774L76.1825 36.7629C77.541 34.8875 79.901 32.7705 81.9521 33.9483C82.6389 34.3426 83.0898 35.0499 83.8049 35.3959C85.5112 36.2216 87.3264 34.6432 88.8367 33.5251C94.0449 29.6697 101.451 30.6797 107.932 31.881C110.992 32.4481 114.353 33.1921 116.162 35.6036C119.167 39.6109 116.029 45.4013 117.783 50.0308C118.274 49.7043 118.691 49.2874 119.009 48.805C119.328 48.3226 119.541 47.7844 119.636 47.2223C122.083 47.2941 125.081 47.0656 126.129 44.9647C126.448 44.1414 126.618 43.2728 126.631 42.3956C127.016 38.8666 128.833 35.6471 130.036 32.2883C131.239 28.9295 131.762 24.9933 129.732 22.0153C128.989 21.0063 128.092 20.1078 127.071 19.349C115.548 10.1533 100.397 8.63678 85.8872 8.65043Z" fill="#2F2E41"/>
<path d="M144.544 104.867L154.105 107.278C154.105 107.278 176.356 161.396 171.225 198.432C166.094 235.468 163.015 227.671 163.015 227.671C163.015 227.671 154.806 210.127 136.334 214.026L144.544 104.867Z" fill="#2F2E41"/>
<path d="M43.3457 529.545C40.871 532.739 41.3672 537.304 39.1751 540.679C37.275 543.605 33.6941 545.138 31.3174 547.731C30.559 548.592 29.883 549.516 29.2972 550.491C27.0925 553.998 25.3005 558.493 27.4718 562.019C29.2185 564.856 32.89 565.965 36.2572 566.72C40.5131 567.675 44.9351 568.439 49.2401 567.71C53.5452 566.98 57.7526 564.476 59.2876 560.587C59.5892 559.609 59.9479 558.648 60.3618 557.708C62.6952 553.345 70.0142 553.298 72.4022 548.962C74.0734 545.927 72.5372 542.259 71.0016 539.161L66.3115 529.698C64.7551 526.557 58.4455 528.363 55.1562 527.611C50.8663 526.629 46.4318 525.548 43.3457 529.545Z" fill="#2F2E41"/>
<path d="M9.08554 225.722L52.1859 289.073C52.1859 289.073 78.8671 321.236 87.0767 306.616C95.2863 291.997 58.3431 267.631 58.3431 267.631L30.6357 218.899L9.08554 225.722Z" fill="#FFB8B8"/>
<path d="M30.6357 106.816L22.4261 104.867C22.4261 104.867 6.00694 109.74 1.90214 130.208C-2.20265 150.675 0.87594 232.544 6.00693 233.519C11.1379 234.493 31.3489 219.264 34.584 222.493C37.8191 225.722 27.5571 209.153 30.6357 200.381C33.7142 191.609 30.6357 106.816 30.6357 106.816Z" fill="#2F2E41"/>
<path d="M416.457 150.321H389.933V156.385H416.457V150.321Z" fill="#4328E9"/>
<path d="M508.306 150.321H498.973V156.385H508.306V150.321Z" fill="#4328E9"/>
<path d="M526.97 150.321H517.638V156.385H526.97V150.321Z" fill="#4328E9"/>
<path d="M489.15 150.321H425.789V156.385H489.15V150.321Z" fill="#4328E9"/>
<path d="M383.057 189.506H356.534V195.57H383.057V189.506Z" fill="#4328E9"/>
<path d="M474.906 189.506H465.574V195.57H474.906V189.506Z" fill="#4328E9"/>
<path d="M493.571 189.506H484.238V195.57H493.571V189.506Z" fill="#4328E9"/>
<path d="M455.75 189.506H392.389V195.57H455.75V189.506Z" fill="#4328E9"/>
<path d="M492.588 163.849H466.065V169.914H492.588V163.849Z" fill="#4328E9"/>
<path d="M528.444 163.849H501.92V169.914H528.444V163.849Z" fill="#4328E9"/>
<path d="M365.866 163.849H356.534V169.914H365.866V163.849Z" fill="#4328E9"/>
<path d="M384.531 163.849H375.198V169.914H384.531V163.849Z" fill="#4328E9"/>
<path d="M457.224 163.849H393.863V169.914H457.224V163.849Z" fill="#4328E9"/>
<path d="M437.577 176.911H411.054V182.975H437.577V176.911Z" fill="#4328E9"/>
<path d="M401.722 176.911H375.198V182.975H401.722V176.911Z" fill="#4328E9"/>
<path d="M365.866 176.911H356.534V182.975H365.866V176.911Z" fill="#4328E9"/>
<path d="M528.444 176.911H519.111V182.975H528.444V176.911Z" fill="#4328E9"/>
<path d="M509.779 176.911H446.418V182.975H509.779V176.911Z" fill="#4328E9"/>
</svg>
