<svg width="745" height="477" viewBox="0 0 745 477" fill="none" xmlns="http://www.w3.org/2000/svg">
<g clip-path="url(#clip0_47_2)">
<path d="M195.334 149.426C218.899 149.426 238.002 127.375 238.002 100.174C238.002 72.9725 218.899 50.9216 195.334 50.9216C171.77 50.9216 152.667 72.9725 152.667 100.174C152.667 127.375 171.77 149.426 195.334 149.426Z" fill="#FF6584"/>
<path d="M329.134 251.95H119.821C119.559 251.954 119.298 251.93 119.039 251.879L218.035 53.9414C218.639 52.7086 219.516 51.6831 220.576 50.9696C221.635 50.2561 222.84 49.8801 224.067 49.8801C225.294 49.8801 226.499 50.2561 227.559 50.9696C228.619 51.6831 229.496 52.7086 230.1 53.9414L296.538 186.773L299.721 193.129L329.134 251.95Z" fill="#3F3D56"/>
<path opacity="0.2" d="M329.134 251.95H257.67L292.751 193.128L295.276 188.891L296.539 186.773L299.722 193.128L329.134 251.95Z" fill="black"/>
<path d="M445.678 251.95H264.64L299.721 193.129L302.246 188.891L347.961 112.236C350.958 107.212 358.168 106.899 361.691 111.288C361.928 111.587 362.148 111.904 362.35 112.236L445.678 251.95Z" fill="#3F3D56"/>
<path d="M498.82 219.387C505.921 219.387 511.678 212.742 511.678 204.546C511.678 196.349 505.921 189.705 498.82 189.705C491.72 189.705 485.963 196.349 485.963 204.546C485.963 212.742 491.72 219.387 498.82 219.387Z" fill="#6C63FF"/>
<path d="M500.06 249.249H497.427L498.627 202.311L500.06 249.249Z" fill="#3F3D56"/>
<path d="M498.859 211.207L501.686 206.691L498.82 212.324L498.511 211.699L498.859 211.207Z" fill="#3F3D56"/>
<path d="M498.55 215.766L495.722 211.251L498.588 216.883L498.898 216.258L498.55 215.766Z" fill="#3F3D56"/>
<path d="M616.76 219.387C623.861 219.387 629.617 212.742 629.617 204.546C629.617 196.349 623.861 189.705 616.76 189.705C609.659 189.705 603.903 196.349 603.903 204.546C603.903 212.742 609.659 219.387 616.76 219.387Z" fill="#6C63FF"/>
<path d="M617.999 249.249H615.366L616.567 202.311L617.999 249.249Z" fill="#3F3D56"/>
<path d="M616.799 211.207L619.626 206.691L616.76 212.324L616.45 211.699L616.799 211.207Z" fill="#3F3D56"/>
<path d="M616.489 215.766L613.662 211.251L616.528 216.883L616.837 216.258L616.489 215.766Z" fill="#3F3D56"/>
<path d="M536.065 205.146C546.552 205.146 555.054 195.332 555.054 183.226C555.054 171.121 546.552 161.307 536.065 161.307C525.578 161.307 517.076 171.121 517.076 183.226C517.076 195.332 525.578 205.146 536.065 205.146Z" fill="#6C63FF"/>
<path d="M537.895 249.249H534.006L535.779 179.925L537.895 249.249Z" fill="#3F3D56"/>
<path d="M536.123 193.063L540.298 186.396L536.066 194.715L535.607 193.79L536.123 193.063Z" fill="#3F3D56"/>
<path d="M535.665 199.798L531.49 193.13L535.722 201.448L536.18 200.524L535.665 199.798Z" fill="#3F3D56"/>
<path d="M582.373 205.146C592.86 205.146 601.362 195.332 601.362 183.226C601.362 171.121 592.86 161.307 582.373 161.307C571.885 161.307 563.384 171.121 563.384 183.226C563.384 195.332 571.885 205.146 582.373 205.146Z" fill="#6C63FF"/>
<path d="M584.203 249.249H580.314L582.087 179.925L584.203 249.249Z" fill="#3F3D56"/>
<path d="M582.43 193.063L586.605 186.396L582.373 194.715L581.915 193.79L582.43 193.063Z" fill="#3F3D56"/>
<path d="M581.972 199.798L577.797 193.13L582.03 201.448L582.487 200.524L581.972 199.798Z" fill="#3F3D56"/>
<path d="M462.262 205.146C472.75 205.146 481.251 195.332 481.251 183.226C481.251 171.121 472.75 161.307 462.262 161.307C451.775 161.307 443.274 171.121 443.274 183.226C443.274 195.332 451.775 205.146 462.262 205.146Z" fill="#6C63FF"/>
<path d="M464.092 249.249H460.203L461.977 179.925L464.092 249.249Z" fill="#3F3D56"/>
<path d="M462.32 193.063L466.495 186.396L462.262 194.715L461.805 193.79L462.32 193.063Z" fill="#3F3D56"/>
<path d="M461.862 199.798L457.687 193.13L461.919 201.448L462.377 200.524L461.862 199.798Z" fill="#3F3D56"/>
<path d="M686.918 477H67.2284C59.4208 477 51.6897 475.225 44.4764 471.776C37.2632 468.327 30.7091 463.272 25.1883 456.899C19.6675 450.526 15.2882 442.961 12.3004 434.634C9.31254 426.308 7.77472 417.384 7.77472 408.371C7.77472 399.359 9.31254 390.434 12.3004 382.108C15.2882 373.781 19.6675 366.216 25.1883 359.843C30.7091 353.47 37.2632 348.415 44.4764 344.966C51.6897 341.517 59.4208 339.742 67.2284 339.742H685.546C691.611 339.742 697.427 336.961 701.716 332.011C706.004 327.061 708.413 320.347 708.413 313.346C708.413 306.346 706.004 299.632 701.716 294.682C697.427 289.732 691.611 286.951 685.546 286.951H46.6483V244.718H685.546C701.314 244.718 716.437 251.948 727.586 264.818C738.736 277.689 745 295.145 745 313.346C745 331.548 738.736 349.004 727.586 361.874C716.437 374.745 701.314 381.975 685.546 381.975H67.2284C61.1637 381.975 55.3475 384.756 51.0591 389.707C46.7708 394.657 44.3616 401.371 44.3616 408.371C44.3616 415.372 46.7708 422.086 51.0591 427.036C55.3475 431.986 61.1637 434.767 67.2284 434.767H686.918V477Z" fill="#E6E6E6"/>
<path d="M97.8699 264.778H69.515V266.89H97.8699V264.778Z" fill="white"/>
<path d="M178.361 264.778H150.006V266.89H178.361V264.778Z" fill="white"/>
<path d="M258.852 264.778H230.497V266.89H258.852V264.778Z" fill="white"/>
<path d="M339.343 264.778H310.988V266.89H339.343V264.778Z" fill="white"/>
<path d="M419.834 264.778H391.479V266.89H419.834V264.778Z" fill="white"/>
<path d="M500.325 264.778H471.971V266.89H500.325V264.778Z" fill="white"/>
<path d="M580.816 264.778H552.462V266.89H580.816V264.778Z" fill="white"/>
<path d="M661.308 264.778H632.953V266.89H661.308V264.778Z" fill="white"/>
<path d="M97.8699 359.803H69.515V361.915H97.8699V359.803Z" fill="white"/>
<path d="M178.361 359.803H150.006V361.915H178.361V359.803Z" fill="white"/>
<path d="M258.852 359.803H230.497V361.915H258.852V359.803Z" fill="white"/>
<path d="M339.343 359.803H310.988V361.915H339.343V359.803Z" fill="white"/>
<path d="M419.834 359.803H391.479V361.915H419.834V359.803Z" fill="white"/>
<path d="M500.325 359.803H471.971V361.915H500.325V359.803Z" fill="white"/>
<path d="M580.816 359.803H552.462V361.915H580.816V359.803Z" fill="white"/>
<path d="M661.308 359.803H632.953V361.915H661.308V359.803Z" fill="white"/>
<path d="M97.8699 454.828H69.515V456.939H97.8699V454.828Z" fill="white"/>
<path d="M178.361 454.828H150.006V456.939H178.361V454.828Z" fill="white"/>
<path d="M258.852 454.828H230.497V456.939H258.852V454.828Z" fill="white"/>
<path d="M339.343 454.828H310.988V456.939H339.343V454.828Z" fill="white"/>
<path d="M419.834 454.828H391.479V456.939H419.834V454.828Z" fill="white"/>
<path d="M500.325 454.828H471.971V456.939H500.325V454.828Z" fill="white"/>
<path d="M580.816 454.828H552.462V456.939H580.816V454.828Z" fill="white"/>
<path d="M661.308 454.828H632.953V456.939H661.308V454.828Z" fill="white"/>
<path d="M497.479 83.8037C500.458 83.8005 503.389 84.6746 505.993 86.3432H488.987C491.584 84.6751 494.507 83.8009 497.479 83.8037Z" fill="#E6E6E6"/>
<path d="M464.48 81.2642C469.455 81.2575 474.311 83.032 478.377 86.3432H450.601C454.662 83.0358 459.51 81.2615 464.48 81.2642Z" fill="#E6E6E6"/>
<path d="M277.551 49.1164C278.155 36.7985 282.528 25.1283 289.893 16.1866C297.257 7.24488 307.133 1.61287 317.76 0.294675C328.387 -1.02352 339.074 2.0578 347.916 8.98927C356.758 15.9207 363.18 26.2518 366.037 38.1405C366.583 38.1179 367.129 38.0925 367.68 38.0925C377.424 38.0946 386.905 41.7383 394.705 48.4784C402.505 55.2186 408.205 64.6929 410.952 75.4839C417.409 72.2092 424.624 71.4987 431.467 73.4638C438.311 75.4288 444.397 79.9584 448.772 86.3431H308.092C303.988 86.3565 299.923 85.4138 296.142 83.5714C292.361 81.7291 288.941 79.0249 286.087 75.6209C283.232 72.2169 281.002 68.183 279.53 63.7607C278.058 59.3385 277.374 54.6188 277.519 49.8842C277.528 49.6287 277.539 49.3727 277.551 49.1164Z" fill="#E6E6E6"/>
<path d="M507.745 121.813C504.766 121.81 501.835 122.684 499.231 124.353H516.237C513.64 122.685 510.717 121.811 507.745 121.813Z" fill="#E6E6E6"/>
<path d="M540.745 119.274C535.769 119.267 530.913 121.042 526.847 124.353H554.623C550.563 121.046 545.714 119.271 540.745 119.274Z" fill="#E6E6E6"/>
<path d="M727.673 87.1264C727.07 74.8085 722.696 63.1383 715.332 54.1966C707.967 45.2549 698.091 39.6229 687.464 38.3047C676.837 36.9865 666.15 40.0678 657.308 46.9993C648.466 53.9307 642.044 64.2618 639.187 76.1505C638.641 76.1279 638.095 76.1025 637.544 76.1025C627.8 76.1046 618.319 79.7483 610.519 86.4884C602.719 93.2286 597.019 102.703 594.272 113.494C587.815 110.219 580.6 109.509 573.757 111.474C566.913 113.439 560.827 117.968 556.452 124.353H697.133C701.237 124.366 705.301 123.424 709.082 121.581C712.863 119.739 716.283 117.035 719.138 113.631C721.992 110.227 724.222 106.193 725.694 101.771C727.166 97.3484 727.85 92.6287 727.705 87.8942C727.696 87.6387 727.685 87.3827 727.673 87.1264Z" fill="#E6E6E6"/>
<path d="M633.883 447.486L650.233 447.497L650.235 444.501L633.884 444.491L633.883 447.486Z" fill="#3F3D56"/>
<path d="M515.668 445.167L519.041 446.068L647.249 446.147L648.402 443.046C650.413 437.728 651.103 431.869 650.396 426.123C649.843 421.841 648.46 417.586 645.317 415.738L639.628 371.995L568.697 371.849L541.254 397.399C541.254 397.399 528.309 397.131 521.276 407.237C518.739 410.995 517.241 415.548 516.977 420.302L516.699 425.56L515.668 445.167Z" fill="#6C63FF"/>
<path d="M543.827 462.71C552.571 462.71 559.659 454.528 559.659 444.435C559.659 434.342 552.571 426.161 543.827 426.161C535.084 426.161 527.996 434.342 527.996 444.435C527.996 454.528 535.084 462.71 543.827 462.71Z" fill="#3F3D56"/>
<path d="M543.827 454.054C548.429 454.054 552.16 449.747 552.16 444.435C552.16 439.123 548.429 434.817 543.827 434.817C539.225 434.817 535.495 439.123 535.495 444.435C535.495 449.747 539.225 454.054 543.827 454.054Z" fill="#CCCCCC"/>
<path d="M621.946 462.758C630.689 462.758 637.777 454.576 637.777 444.484C637.777 434.391 630.689 426.209 621.946 426.209C613.202 426.209 606.115 434.391 606.115 444.484C606.115 454.576 613.202 462.758 621.946 462.758Z" fill="#3F3D56"/>
<path d="M621.946 454.102C626.548 454.102 630.278 449.795 630.278 444.483C630.278 439.171 626.548 434.865 621.946 434.865C617.344 434.865 613.614 439.171 613.614 444.483C613.614 449.795 617.344 454.102 621.946 454.102Z" fill="#CCCCCC"/>
<path d="M552.157 394.413L590.454 394.432H595.129L603.022 394.438V393.774L603.028 385.762L603.033 376.765H597.782L593.107 376.76L584.826 376.753H580.151L570.591 376.746L552.157 394.413Z" fill="white"/>
<path d="M609.253 394.445L629.493 394.458L629.498 389.873V381.861L629.504 376.785H626.541L621.865 376.778L609.259 376.772L609.253 394.445Z" fill="white"/>
<path d="M600.419 413.314L603.015 413.315L603.017 407.623L600.422 407.621L600.419 413.314Z" fill="#3F3D56"/>
<path d="M562.533 402.505L562.534 399.509L557.603 399.506L557.602 402.502L562.533 402.505Z" fill="#3F3D56"/>
<path d="M560.717 400.826L560.431 400.826C559.719 400.826 559.014 400.663 558.356 400.348C557.698 400.033 557.1 399.572 556.597 398.99C556.093 398.408 555.694 397.718 555.422 396.958C555.15 396.198 555.01 395.384 555.01 394.562C555.011 393.739 555.151 392.925 555.424 392.166C555.697 391.406 556.097 390.716 556.601 390.135C557.105 389.554 557.703 389.093 558.361 388.779C559.02 388.465 559.725 388.303 560.437 388.304L560.723 388.304L560.717 400.826Z" fill="#3F3D56"/>
<path d="M516.699 425.56C518.662 425.806 520.637 425.245 522.277 423.976C523.916 422.706 525.115 420.809 525.662 418.62C526.209 416.43 526.069 414.088 525.266 412.005C524.464 409.923 523.051 408.235 521.276 407.237C518.739 410.995 517.241 415.548 516.977 420.302L516.699 425.56Z" fill="#3F3D56"/>
<path d="M593.107 376.76L603.022 393.774L603.028 385.761L597.782 376.765L593.107 376.76Z" fill="#F2F2F2"/>
<path d="M621.865 376.778L629.498 389.873V381.861L626.54 376.785L621.865 376.778Z" fill="#F2F2F2"/>
<path d="M580.151 376.753L590.454 394.431H595.129L584.826 376.753H580.151Z" fill="#F2F2F2"/>
<path d="M42.0749 301.732C65.3122 301.732 84.1498 279.988 84.1498 253.164C84.1498 226.341 65.3122 204.596 42.0749 204.596C18.8376 204.596 0 226.341 0 253.164C0 279.988 18.8376 301.732 42.0749 301.732Z" fill="#3F3D56"/>
<path d="M42.25 267.786L21.1942 243.481C20.5093 242.688 20.1249 241.615 20.1254 240.495C20.126 239.376 20.5114 238.303 21.1971 237.511C21.8828 236.72 22.8126 236.275 23.7823 236.274C24.752 236.273 25.6823 236.717 26.3687 237.508L41.8999 255.436L91.4605 190.198C92.1007 189.357 93.0036 188.844 93.971 188.772C94.9384 188.7 95.8912 189.073 96.62 189.811C97.3489 190.549 97.7943 191.591 97.8584 192.707C97.9225 193.824 97.6001 194.924 96.9619 195.766L42.25 267.786Z" fill="#6C63FF"/>
</g>
<defs>
<clipPath id="clip0_47_2">
<rect width="745" height="477" fill="white"/>
</clipPath>
</defs>
</svg>
