<svg width="283" height="493" viewBox="0 0 283 493" fill="none" xmlns="http://www.w3.org/2000/svg">
<path d="M198.221 490.64L198.237 489.934C198.562 478.093 201.503 466.464 206.856 455.855C212.209 445.246 219.845 435.911 229.234 428.5C234.534 424.384 240.34 420.941 246.514 418.252L247.102 417.994L247.203 418.621C248.398 426.097 250.292 433.728 251.174 437.115L257.087 414.408L257.744 414.222C260.757 413.351 263.966 413.389 266.957 414.329C269.948 415.27 272.584 417.07 274.526 419.498C276.552 421.927 277.793 424.898 278.089 428.027C278.385 431.156 277.722 434.301 276.185 437.056C274.807 439.583 273.452 442.22 272.141 444.77C267.639 453.532 262.984 462.592 256.199 469.632C251.011 474.91 244.69 478.982 237.698 481.549C230.706 484.115 223.22 485.113 215.786 484.468L198.221 490.64Z" fill="#F2F2F2"/>
<path d="M124.496 480.138L114.208 480.137L109.312 441.078L124.498 441.079L124.496 480.138Z" fill="#FFB6B6"/>
<path d="M124.859 490.702L93.217 490.701V490.307C93.2172 487.093 94.5148 484.01 96.8245 481.737C99.1341 479.464 102.267 478.187 105.533 478.187L111.314 473.872L122.097 478.188L124.86 478.188L124.859 490.702Z" fill="#2F2E41"/>
<path d="M231.007 451.61L222.878 457.818L194.676 429.916L206.673 420.753L231.007 451.61Z" fill="#FFB6B6"/>
<path d="M237.875 459.736L212.878 478.828L212.632 478.517C210.63 475.978 209.734 472.759 210.143 469.57C210.551 466.381 212.23 463.482 214.81 461.511L216.688 454.614L227.896 451.516L230.078 449.85L237.875 459.736Z" fill="#2F2E41"/>
<path d="M186.498 262.63C186.498 262.63 185.796 273.204 184.91 288.322C184.765 290.801 185.622 293.495 185.469 296.192C185.368 297.981 184.258 299.721 184.155 301.587C184.046 303.556 185.578 305.299 185.469 307.335C185.362 309.325 183.615 311.607 183.51 313.643C182.375 335.56 178.263 361.797 182.381 369.131C184.41 372.746 215.321 422.823 215.321 422.823C215.321 422.823 200.91 444.097 196.792 437.005C191.354 427.639 149.44 383.82 149.44 375.453C149.44 367.095 139.744 304.458 139.744 304.458L132.982 341.526L129.882 348.87L130.856 353.182L128.853 359.001L128.744 364.759L126.794 375.453C126.794 375.453 132.661 458.766 129.357 461.085C126.043 463.415 109.994 467.599 108.1 463.415C106.217 459.232 99.0006 376.466 99.0006 376.466C99.0006 376.466 97.0242 338.537 94.883 303.283C94.7596 301.237 93.2977 298.765 93.1845 296.749C93.0507 294.409 93.9772 291.37 93.8536 289.1C93.7198 286.497 92.5463 284.663 92.4331 282.171C91.5581 262.913 91.4243 247.738 92.9889 245.428C97.7138 238.458 101.965 232.886 101.965 232.886C101.965 232.886 169.493 216.617 186.498 237.526L186.498 262.63Z" fill="#2F2E41"/>
<path d="M125.765 63.1908L142.047 62.2948L154.317 68.8865L188.439 259.051C188.439 259.051 153.558 274.918 131.941 268.839C110.324 262.761 87.5591 263.103 87.5591 263.103L104.147 81.4256L117.529 69.2691L125.765 63.1908Z" fill="#E6E6E6"/>
<path d="M152.928 67.2227L178.131 77.3514C182 77.537 185.692 79.0065 188.605 81.5207C191.518 84.0348 193.48 87.4454 194.172 91.1971L192.5 140.181L183.41 163.483L189.892 216.566L186.499 223.252L189.431 230.077C185.126 236.955 186.003 245.967 188.557 255.67H185.469L179.293 254.657C179.293 254.657 165.695 259.303 162.909 242.617C155.617 198.939 151.499 218.187 151.499 218.187L147.91 82.6694L152.928 67.2227Z" fill="#3F3D56"/>
<path d="M118.559 67.2433L95.0157 91.5342C91.1459 91.7198 87.4539 93.1894 84.5411 95.7035C81.6282 98.2176 79.666 101.628 78.9741 105.38L88.7066 180.705L84.139 209.607L86.6478 216.161L84.831 223.569L87.6772 230.344L85.6185 239.461L88.7066 252.631L104.147 248.579L104.029 237.778L108.147 90.8857L118.559 67.2433Z" fill="#3F3D56"/>
<path d="M40.0447 192.109L7.97448 215.01C6.74591 215.073 5.55578 215.453 4.52393 216.113C3.49208 216.772 2.6549 217.687 2.09666 218.766C1.53843 219.845 1.27885 221.049 1.34404 222.258C1.40922 223.467 1.79687 224.638 2.46798 225.653C3.13909 226.667 4.06997 227.49 5.16692 228.038C6.26386 228.586 7.4882 228.84 8.71661 228.775C9.94503 228.709 11.1342 228.326 12.1644 227.664C13.1946 227.003 14.0296 226.086 14.5852 225.005L58.1945 202.094L40.0447 192.109Z" fill="#FFB6B6"/>
<path d="M84.5891 95.6084C78.4938 98.3751 63.4364 169.208 59.0172 170.71C54.598 172.211 56.2853 171.986 55.6653 173.239C55.0453 174.493 54.8953 180.107 50.6529 180.766C46.4105 181.425 23.9959 201.535 23.9959 201.535L29.6777 220.175C29.6777 220.175 72.8105 195.924 84.7035 182.494C96.5965 169.065 103 100.003 103 100.003L104.216 93.1129C104.216 93.1129 90.6843 92.8416 84.5891 95.6084Z" fill="#3F3D56"/>
<path d="M181.312 182.756L152.732 209.765C151.524 209.992 150.398 210.529 149.467 211.321C148.537 212.114 147.835 213.133 147.432 214.277C147.029 215.421 146.94 216.649 147.173 217.838C147.405 219.027 147.952 220.134 148.758 221.049C149.564 221.963 150.601 222.653 151.764 223.048C152.927 223.443 154.175 223.53 155.383 223.299C156.59 223.069 157.715 222.529 158.643 221.735C159.572 220.94 160.271 219.919 160.671 218.774L200.681 190.201L181.312 182.756Z" fill="#FFB6B6"/>
<path d="M185.469 101.687C179.816 105.249 201.296 156.918 197.127 159.002C192.959 161.085 194.599 160.634 194.159 161.96C193.72 163.285 194.352 168.866 190.242 170.091C186.131 171.315 166.727 194.258 166.727 194.258L174.949 211.955C174.949 211.955 214.3 182.119 224.212 167.213C234.124 152.307 227.674 147.274 227.674 147.274C215.377 121.57 203.875 79.6521 186.498 82.4388C186.498 82.4388 191.121 98.1245 185.469 101.687Z" fill="#3F3D56"/>
<path d="M129.257 59.18C144.496 59.18 156.851 47.0217 156.851 32.0237C156.851 17.0257 144.496 4.86743 129.257 4.86743C114.017 4.86743 101.662 17.0257 101.662 32.0237C101.662 47.0217 114.017 59.18 129.257 59.18Z" fill="#FFB6B6"/>
<path d="M157.2 49.5218C157.2 49.5218 151.122 51.1618 147.585 52.0748C147.768 49.4848 148.908 47.0602 149.487 44.5264C150.066 41.9927 149.94 39.0129 148.027 37.2239C146.113 35.4349 142.128 36.1319 141.82 38.7061C140.201 35.2997 138.579 31.8871 136.954 28.4683C132.319 37.8564 122.844 29.8561 112.513 32.2282C107.243 33.45 100.638 32.9252 97.8532 28.355C99.4179 27.0625 100.736 25.506 101.746 23.7585C100.14 24.2223 98.4695 24.4306 96.7969 24.3757C96.8351 22.7409 97.2718 21.1391 98.0701 19.705C98.8684 18.2709 100.005 17.0465 101.384 16.1347C102.87 15.1787 99.1924 11.7768 100.489 10.5794C103.149 8.13533 104.934 9.79496 106.505 6.57341C107.518 4.58128 109.079 2.90905 111.011 1.74703C112.942 0.585016 115.166 -0.0201211 117.429 0.000510478C121.945 0.104591 130.037 0.0617189 131.789 4.15605C137.373 0.55872 145.146 1.57509 150.604 5.34875C155.141 8.47323 160.304 17.9175 161.443 23.2489C162.583 28.5802 160.072 44.8754 157.2 49.5218Z" fill="#2F2E41"/>
<path d="M281.774 492.689L2.03859 493C1.87733 493 1.71755 492.97 1.56844 492.909C1.41932 492.849 1.28379 492.76 1.1696 492.648C1.05541 492.536 0.964775 492.403 0.902956 492.256C0.841138 492.11 0.809341 491.952 0.809341 491.794C0.809341 491.635 0.841138 491.478 0.902956 491.331C0.964775 491.185 1.05541 491.052 1.1696 490.94C1.28379 490.827 1.41932 490.739 1.56844 490.678C1.71755 490.618 1.87733 490.587 2.03859 490.587L281.774 490.276C282.099 490.276 282.411 490.403 282.641 490.629C282.871 490.856 283 491.162 283 491.482C283 491.802 282.871 492.109 282.641 492.335C282.411 492.561 282.099 492.689 281.774 492.689Z" fill="#CACACA"/>
<path d="M169.081 67.2457C168.439 66.2554 167.431 65.55 166.27 65.2791C165.108 65.0082 163.886 65.193 162.86 65.7944C164.374 63.7249 163.234 60.1884 160.862 58.7589C158.175 57.1393 154.78 57.4076 151.646 57.7297L125.956 60.3704C122.994 60.6749 119.95 61.003 117.313 62.3657C114.676 63.7283 112.507 66.3876 112.659 69.3148C110.646 68.5877 108.495 68.3007 106.358 68.4737C104.246 68.8012 102.163 70.3202 101.938 72.4124C101.576 75.7697 105.629 77.7086 108.93 78.629C115.058 80.3378 121.187 82.0468 127.315 83.7558L125.426 84.1532C137.486 85.1907 149.627 83.4622 160.894 79.1036C163.476 78.1018 166.09 76.902 167.898 74.8297C169.706 72.7573 170.495 69.5961 169.081 67.2457Z" fill="#E6E6E6"/>
</svg>
